<svg xmlns="http://www.w3.org/2000/svg" width="526.268" height="142.161" viewBox="0 0 526.268 142.161">
  <g id="Group_6" data-name="Group 6" transform="translate(-442 -598.5)">
    <g id="Group_3" data-name="Group 3">
      <line id="Line_4" data-name="Line 4" y1="55" transform="translate(469.5 678)" fill="none" stroke="#fff" stroke-width="6"/>
      <line id="Line_17" data-name="Line 17" y1="142" transform="translate(746 598.5)" fill="none" stroke="#fff" stroke-width="14"/>
      <path id="Path_28" data-name="Path 28" d="M0,125V-7.915" transform="translate(540 615.5)" fill="none" stroke="#fff" stroke-width="14"/>
      <line id="Line_22" data-name="Line 22" y1="142" transform="translate(844.473 598.5)" fill="none" stroke="#fff" stroke-width="14"/>
      <path id="Path_27" data-name="Path 27" d="M0,131.541V-.161" transform="translate(628.527 609.12)" fill="none" stroke="#fff" stroke-width="14"/>
      <line id="Line_23" data-name="Line 23" y1="104" transform="translate(954.473 615.5)" fill="none" stroke="#fff" stroke-width="14"/>
      <line id="Line_8" data-name="Line 8" y1="17" transform="translate(451.5 689)" fill="none" stroke="#fff" stroke-width="6"/>
      <line id="Line_19" data-name="Line 19" y1="55.291" transform="translate(699.527 615.5)" fill="none" stroke="#fff" stroke-width="14"/>
      <line id="Line_9" data-name="Line 9" y1="16" transform="translate(487.5 704)" fill="none" stroke="#fff" stroke-width="6"/>
      <line id="Line_21" data-name="Line 21" y1="55" transform="translate(792.473 665.5)" fill="none" stroke="#fff" stroke-width="14"/>
      <line id="Line_5" data-name="Line 5" x2="54" transform="translate(442.5 720)" fill="none" stroke="#fff" stroke-width="6"/>
      <line id="Line_20" data-name="Line 20" x2="139.418" transform="translate(676.291 719.5)" fill="none" stroke="#fff" stroke-width="14"/>
      <path id="Path_24" data-name="Path 24" d="M0,0H141.3" transform="translate(513 719.5)" fill="none" stroke="#fff" stroke-width="14"/>
      <path id="Path_25" data-name="Path 25" d="M0,0H141.3" transform="translate(826.973 719.5)" fill="none" stroke="#fff" stroke-width="14"/>
      <path id="Path_26" data-name="Path 26" d="M0,0H141.3" transform="translate(826.973 615.5)" fill="none" stroke="#fff" stroke-width="14"/>
      <line id="Line_6" data-name="Line 6" x2="54" transform="translate(442 704)" fill="none" stroke="#fff" stroke-width="6"/>
      <line id="Line_16" data-name="Line 16" x2="139.418" transform="translate(675 665.627)" fill="none" stroke="#fff" stroke-width="14"/>
      <line id="Line_7" data-name="Line 7" x2="54" transform="translate(442.5 689)" fill="none" stroke="#fff" stroke-width="6"/>
      <line id="Line_18" data-name="Line 18" x2="139.418" transform="translate(676.291 615.5)" fill="none" stroke="#fff" stroke-width="14"/>
    </g>
  </g>
</svg>
